<svg width="123" height="49" viewBox="0 0 123 49" fill="none" xmlns="http://www.w3.org/2000/svg">
<path d="M25.861 27.361C25.917 27.361 25.973 27.3727 26.029 27.396C26.085 27.4147 26.1387 27.4497 26.19 27.501L27.128 28.488C26.7173 29.0247 26.2017 29.4307 25.581 29.706C24.965 29.9767 24.2347 30.112 23.39 30.112C22.6153 30.112 21.92 29.9813 21.304 29.72C20.6927 29.454 20.1723 29.09 19.743 28.628C19.3183 28.1613 18.9917 27.6107 18.763 26.976C18.5343 26.3367 18.42 25.6437 18.42 24.897C18.42 24.1363 18.5437 23.4387 18.791 22.804C19.0383 22.1647 19.386 21.614 19.834 21.152C20.282 20.69 20.8187 20.3307 21.444 20.074C22.0693 19.8173 22.7577 19.689 23.509 19.689C23.8917 19.689 24.251 19.724 24.587 19.794C24.9277 19.8593 25.245 19.9527 25.539 20.074C25.833 20.1907 26.1037 20.333 26.351 20.501C26.5983 20.669 26.8177 20.851 27.009 21.047L26.211 22.118C26.1597 22.1833 26.099 22.244 26.029 22.3C25.959 22.3513 25.861 22.377 25.735 22.377C25.651 22.377 25.5717 22.3583 25.497 22.321C25.4223 22.2837 25.343 22.2393 25.259 22.188C25.175 22.132 25.0817 22.0737 24.979 22.013C24.881 21.9477 24.762 21.8893 24.622 21.838C24.4867 21.782 24.3257 21.7353 24.139 21.698C23.957 21.6607 23.7423 21.642 23.495 21.642C23.103 21.642 22.7437 21.7143 22.417 21.859C22.095 22.0037 21.815 22.216 21.577 22.496C21.3437 22.7713 21.1617 23.112 21.031 23.518C20.905 23.9193 20.842 24.379 20.842 24.897C20.842 25.4197 20.912 25.884 21.052 26.29C21.1967 26.696 21.3903 27.039 21.633 27.319C21.8803 27.5943 22.1673 27.8043 22.494 27.949C22.8207 28.0937 23.1707 28.166 23.544 28.166C23.7587 28.166 23.9547 28.1567 24.132 28.138C24.3093 28.1147 24.475 28.0797 24.629 28.033C24.783 27.9817 24.9277 27.9163 25.063 27.837C25.1983 27.753 25.336 27.648 25.476 27.522C25.532 27.4753 25.5927 27.438 25.658 27.41C25.7233 27.3773 25.791 27.361 25.861 27.361ZM34.8024 27.361C34.8584 27.361 34.9144 27.3727 34.9704 27.396C35.0264 27.4147 35.0801 27.4497 35.1314 27.501L36.0694 28.488C35.6587 29.0247 35.1431 29.4307 34.5224 29.706C33.9064 29.9767 33.1761 30.112 32.3314 30.112C31.5567 30.112 30.8614 29.9813 30.2454 29.72C29.6341 29.454 29.1137 29.09 28.6844 28.628C28.2597 28.1613 27.9331 27.6107 27.7044 26.976C27.4757 26.3367 27.3614 25.6437 27.3614 24.897C27.3614 24.1363 27.4851 23.4387 27.7324 22.804C27.9797 22.1647 28.3274 21.614 28.7754 21.152C29.2234 20.69 29.7601 20.3307 30.3854 20.074C31.0107 19.8173 31.6991 19.689 32.4504 19.689C32.8331 19.689 33.1924 19.724 33.5284 19.794C33.8691 19.8593 34.1864 19.9527 34.4804 20.074C34.7744 20.1907 35.0451 20.333 35.2924 20.501C35.5397 20.669 35.7591 20.851 35.9504 21.047L35.1524 22.118C35.1011 22.1833 35.0404 22.244 34.9704 22.3C34.9004 22.3513 34.8024 22.377 34.6764 22.377C34.5924 22.377 34.5131 22.3583 34.4384 22.321C34.3637 22.2837 34.2844 22.2393 34.2004 22.188C34.1164 22.132 34.0231 22.0737 33.9204 22.013C33.8224 21.9477 33.7034 21.8893 33.5634 21.838C33.4281 21.782 33.2671 21.7353 33.0804 21.698C32.8984 21.6607 32.6837 21.642 32.4364 21.642C32.0444 21.642 31.6851 21.7143 31.3584 21.859C31.0364 22.0037 30.7564 22.216 30.5184 22.496C30.2851 22.7713 30.1031 23.112 29.9724 23.518C29.8464 23.9193 29.7834 24.379 29.7834 24.897C29.7834 25.4197 29.8534 25.884 29.9934 26.29C30.1381 26.696 30.3317 27.039 30.5744 27.319C30.8217 27.5943 31.1087 27.8043 31.4354 27.949C31.7621 28.0937 32.1121 28.166 32.4854 28.166C32.7001 28.166 32.8961 28.1567 33.0734 28.138C33.2507 28.1147 33.4164 28.0797 33.5704 28.033C33.7244 27.9817 33.8691 27.9163 34.0044 27.837C34.1397 27.753 34.2774 27.648 34.4174 27.522C34.4734 27.4753 34.5341 27.438 34.5994 27.41C34.6647 27.3773 34.7324 27.361 34.8024 27.361ZM47.2165 27.361C47.2725 27.361 47.3285 27.3727 47.3845 27.396C47.4405 27.4147 47.4941 27.4497 47.5455 27.501L48.4835 28.488C48.0728 29.0247 47.5571 29.4307 46.9365 29.706C46.3205 29.9767 45.5901 30.112 44.7455 30.112C43.9708 30.112 43.2755 29.9813 42.6595 29.72C42.0481 29.454 41.5278 29.09 41.0985 28.628C40.6738 28.1613 40.3471 27.6107 40.1185 26.976C39.8898 26.3367 39.7755 25.6437 39.7755 24.897C39.7755 24.1363 39.8991 23.4387 40.1465 22.804C40.3938 22.1647 40.7415 21.614 41.1895 21.152C41.6375 20.69 42.1741 20.3307 42.7995 20.074C43.4248 19.8173 44.1131 19.689 44.8645 19.689C45.2471 19.689 45.6065 19.724 45.9425 19.794C46.2831 19.8593 46.6005 19.9527 46.8945 20.074C47.1885 20.1907 47.4591 20.333 47.7065 20.501C47.9538 20.669 48.1731 20.851 48.3645 21.047L47.5665 22.118C47.5151 22.1833 47.4545 22.244 47.3845 22.3C47.3145 22.3513 47.2165 22.377 47.0905 22.377C47.0065 22.377 46.9271 22.3583 46.8525 22.321C46.7778 22.2837 46.6985 22.2393 46.6145 22.188C46.5305 22.132 46.4371 22.0737 46.3345 22.013C46.2365 21.9477 46.1175 21.8893 45.9775 21.838C45.8421 21.782 45.6811 21.7353 45.4945 21.698C45.3125 21.6607 45.0978 21.642 44.8505 21.642C44.4585 21.642 44.0991 21.7143 43.7725 21.859C43.4505 22.0037 43.1705 22.216 42.9325 22.496C42.6991 22.7713 42.5171 23.112 42.3865 23.518C42.2605 23.9193 42.1975 24.379 42.1975 24.897C42.1975 25.4197 42.2675 25.884 42.4075 26.29C42.5521 26.696 42.7458 27.039 42.9885 27.319C43.2358 27.5943 43.5228 27.8043 43.8495 27.949C44.1761 28.0937 44.5261 28.166 44.8995 28.166C45.1141 28.166 45.3101 28.1567 45.4875 28.138C45.6648 28.1147 45.8305 28.0797 45.9845 28.033C46.1385 27.9817 46.2831 27.9163 46.4185 27.837C46.5538 27.753 46.6915 27.648 46.8315 27.522C46.8875 27.4753 46.9481 27.438 47.0135 27.41C47.0788 27.3773 47.1465 27.361 47.2165 27.361ZM53.0093 27.046C52.5753 27.0647 52.2183 27.102 51.9383 27.158C51.6583 27.214 51.4366 27.284 51.2733 27.368C51.11 27.452 50.9956 27.5477 50.9303 27.655C50.8696 27.7623 50.8393 27.879 50.8393 28.005C50.8393 28.2523 50.907 28.4273 51.0423 28.53C51.1776 28.628 51.376 28.677 51.6373 28.677C51.9173 28.677 52.1623 28.628 52.3723 28.53C52.5823 28.432 52.7946 28.2733 53.0093 28.054V27.046ZM49.1033 23.749C49.542 23.3617 50.0273 23.0747 50.5593 22.888C51.096 22.6967 51.67 22.601 52.2813 22.601C52.72 22.601 53.1143 22.6733 53.4643 22.818C53.819 22.958 54.1176 23.1563 54.3603 23.413C54.6076 23.665 54.7966 23.966 54.9273 24.316C55.058 24.666 55.1233 25.0487 55.1233 25.464V30H54.1293C53.924 30 53.7676 29.972 53.6603 29.916C53.5576 29.86 53.4713 29.7433 53.4013 29.566L53.2473 29.167C53.0653 29.321 52.8903 29.4563 52.7223 29.573C52.5543 29.6897 52.3793 29.79 52.1973 29.874C52.02 29.9533 51.8286 30.0117 51.6233 30.049C51.4226 30.091 51.1986 30.112 50.9513 30.112C50.62 30.112 50.319 30.07 50.0483 29.986C49.7776 29.8973 49.5466 29.769 49.3553 29.601C49.1686 29.433 49.024 29.2253 48.9213 28.978C48.8186 28.726 48.7673 28.4367 48.7673 28.11C48.7673 27.8487 48.8326 27.585 48.9633 27.319C49.094 27.0483 49.3203 26.8033 49.6423 26.584C49.9643 26.36 50.3983 26.1733 50.9443 26.024C51.4903 25.8747 52.1786 25.7907 53.0093 25.772V25.464C53.0093 25.0393 52.9206 24.7337 52.7433 24.547C52.5706 24.3557 52.3233 24.26 52.0013 24.26C51.7446 24.26 51.5346 24.288 51.3713 24.344C51.208 24.4 51.061 24.463 50.9303 24.533C50.8043 24.603 50.6806 24.666 50.5593 24.722C50.438 24.778 50.2933 24.806 50.1253 24.806C49.976 24.806 49.85 24.7687 49.7473 24.694C49.6446 24.6193 49.5606 24.5307 49.4953 24.428L49.1033 23.749ZM56.5104 30V22.741H57.8544C58.1251 22.741 58.3024 22.8623 58.3864 23.105L58.5054 23.497C58.6267 23.371 58.7527 23.2567 58.8834 23.154C59.0141 23.0467 59.1541 22.9557 59.3034 22.881C59.4574 22.8017 59.6207 22.741 59.7934 22.699C59.9707 22.6523 60.1644 22.629 60.3744 22.629C60.8131 22.629 61.1747 22.7433 61.4594 22.972C61.7487 23.196 61.9681 23.497 62.1174 23.875C62.2387 23.651 62.3857 23.4597 62.5584 23.301C62.7357 23.1423 62.9247 23.014 63.1254 22.916C63.3307 22.818 63.5454 22.7457 63.7694 22.699C63.9981 22.6523 64.2244 22.629 64.4484 22.629C64.8637 22.629 65.2324 22.692 65.5544 22.818C65.8764 22.9393 66.1447 23.119 66.3594 23.357C66.5787 23.5903 66.7444 23.8797 66.8564 24.225C66.9684 24.5657 67.0244 24.953 67.0244 25.387V30H64.8544V25.387C64.8544 24.6357 64.5324 24.26 63.8884 24.26C63.5944 24.26 63.3494 24.358 63.1534 24.554C62.9621 24.7453 62.8664 25.023 62.8664 25.387V30H60.6964V25.387C60.6964 24.9717 60.6147 24.68 60.4514 24.512C60.2881 24.344 60.0477 24.26 59.7304 24.26C59.5344 24.26 59.3477 24.3043 59.1704 24.393C58.9977 24.4817 58.8344 24.6007 58.6804 24.75V30H56.5104ZM70.5886 28.026C70.7519 28.2033 70.9293 28.3293 71.1206 28.404C71.3119 28.4787 71.5126 28.516 71.7226 28.516C71.9233 28.516 72.1076 28.4763 72.2756 28.397C72.4436 28.3177 72.5883 28.1917 72.7096 28.019C72.8356 27.8417 72.9336 27.613 73.0036 27.333C73.0736 27.053 73.1086 26.7123 73.1086 26.311C73.1086 25.9283 73.0806 25.6063 73.0246 25.345C72.9686 25.0837 72.8893 24.8737 72.7866 24.715C72.6886 24.5517 72.5696 24.435 72.4296 24.365C72.2896 24.295 72.1333 24.26 71.9606 24.26C71.6433 24.26 71.3819 24.3183 71.1766 24.435C70.9713 24.5517 70.7753 24.722 70.5886 24.946V28.026ZM70.4556 23.637C70.7403 23.3337 71.0623 23.0863 71.4216 22.895C71.7856 22.699 72.2173 22.601 72.7166 22.601C73.0946 22.601 73.4446 22.685 73.7666 22.853C74.0886 23.021 74.3663 23.2637 74.5996 23.581C74.8329 23.8983 75.0149 24.288 75.1456 24.75C75.2809 25.2073 75.3486 25.7277 75.3486 26.311C75.3486 26.857 75.2716 27.361 75.1176 27.823C74.9683 28.285 74.7559 28.6863 74.4806 29.027C74.2099 29.3677 73.8833 29.6337 73.5006 29.825C73.1226 30.0163 72.7026 30.112 72.2406 30.112C71.8626 30.112 71.5453 30.0583 71.2886 29.951C71.0319 29.8437 70.7986 29.699 70.5886 29.517V32.303H68.4186V22.741H69.7626C70.0333 22.741 70.2106 22.8623 70.2946 23.105L70.4556 23.637ZM80.2163 27.046C79.7823 27.0647 79.4253 27.102 79.1453 27.158C78.8653 27.214 78.6437 27.284 78.4803 27.368C78.317 27.452 78.2027 27.5477 78.1373 27.655C78.0767 27.7623 78.0463 27.879 78.0463 28.005C78.0463 28.2523 78.114 28.4273 78.2493 28.53C78.3847 28.628 78.583 28.677 78.8443 28.677C79.1243 28.677 79.3693 28.628 79.5793 28.53C79.7893 28.432 80.0017 28.2733 80.2163 28.054V27.046ZM76.3103 23.749C76.749 23.3617 77.2343 23.0747 77.7663 22.888C78.303 22.6967 78.877 22.601 79.4883 22.601C79.927 22.601 80.3213 22.6733 80.6713 22.818C81.026 22.958 81.3247 23.1563 81.5673 23.413C81.8147 23.665 82.0037 23.966 82.1343 24.316C82.265 24.666 82.3303 25.0487 82.3303 25.464V30H81.3363C81.131 30 80.9747 29.972 80.8673 29.916C80.7647 29.86 80.6783 29.7433 80.6083 29.566L80.4543 29.167C80.2723 29.321 80.0973 29.4563 79.9293 29.573C79.7613 29.6897 79.5863 29.79 79.4043 29.874C79.227 29.9533 79.0357 30.0117 78.8303 30.049C78.6297 30.091 78.4057 30.112 78.1583 30.112C77.827 30.112 77.526 30.07 77.2553 29.986C76.9847 29.8973 76.7537 29.769 76.5623 29.601C76.3757 29.433 76.231 29.2253 76.1283 28.978C76.0257 28.726 75.9743 28.4367 75.9743 28.11C75.9743 27.8487 76.0397 27.585 76.1703 27.319C76.301 27.0483 76.5273 26.8033 76.8493 26.584C77.1713 26.36 77.6053 26.1733 78.1513 26.024C78.6973 25.8747 79.3857 25.7907 80.2163 25.772V25.464C80.2163 25.0393 80.1277 24.7337 79.9503 24.547C79.7777 24.3557 79.5303 24.26 79.2083 24.26C78.9517 24.26 78.7417 24.288 78.5783 24.344C78.415 24.4 78.268 24.463 78.1373 24.533C78.0113 24.603 77.8877 24.666 77.7663 24.722C77.645 24.778 77.5003 24.806 77.3323 24.806C77.183 24.806 77.057 24.7687 76.9543 24.694C76.8517 24.6193 76.7677 24.5307 76.7023 24.428L76.3103 23.749ZM85.9364 22.741V30H83.7664V22.741H85.9364ZM86.1604 20.753C86.1604 20.9257 86.1254 21.089 86.0554 21.243C85.9854 21.3923 85.8898 21.5253 85.7684 21.642C85.6471 21.754 85.5048 21.845 85.3414 21.915C85.1828 21.9803 85.0124 22.013 84.8304 22.013C84.6531 22.013 84.4874 21.9803 84.3334 21.915C84.1794 21.845 84.0418 21.754 83.9204 21.642C83.8038 21.5253 83.7104 21.3923 83.6404 21.243C83.5751 21.089 83.5424 20.9257 83.5424 20.753C83.5424 20.5757 83.5751 20.41 83.6404 20.256C83.7104 20.102 83.8038 19.9667 83.9204 19.85C84.0418 19.7333 84.1794 19.6423 84.3334 19.577C84.4874 19.5117 84.6531 19.479 84.8304 19.479C85.0124 19.479 85.1828 19.5117 85.3414 19.577C85.5048 19.6423 85.6471 19.7333 85.7684 19.85C85.8898 19.9667 85.9854 20.102 86.0554 20.256C86.1254 20.41 86.1604 20.5757 86.1604 20.753ZM90.2148 25.989C90.5742 25.989 90.8332 25.9003 90.9918 25.723C91.1552 25.541 91.2368 25.3077 91.2368 25.023C91.2368 24.729 91.1552 24.498 90.9918 24.33C90.8332 24.162 90.5742 24.078 90.2148 24.078C89.8555 24.078 89.5942 24.162 89.4308 24.33C89.2722 24.498 89.1928 24.729 89.1928 25.023C89.1928 25.163 89.2115 25.2913 89.2488 25.408C89.2908 25.5247 89.3538 25.6273 89.4378 25.716C89.5218 25.8 89.6268 25.8677 89.7528 25.919C89.8835 25.9657 90.0375 25.989 90.2148 25.989ZM91.8948 30.266C91.8948 30.0933 91.8178 29.9697 91.6638 29.895C91.5098 29.8157 91.3092 29.7597 91.0618 29.727C90.8145 29.6943 90.5368 29.6757 90.2288 29.671C89.9255 29.6617 89.6222 29.643 89.3188 29.615C89.1835 29.7083 89.0715 29.8133 88.9828 29.93C88.8988 30.042 88.8568 30.1703 88.8568 30.315C88.8568 30.4177 88.8778 30.511 88.9198 30.595C88.9665 30.679 89.0458 30.7513 89.1578 30.812C89.2698 30.8727 89.4192 30.9193 89.6058 30.952C89.7972 30.9893 90.0375 31.008 90.3268 31.008C90.6395 31.008 90.8962 30.9893 91.0968 30.952C91.2975 30.9147 91.4562 30.8633 91.5728 30.798C91.6942 30.7327 91.7782 30.6533 91.8248 30.56C91.8715 30.4713 91.8948 30.3733 91.8948 30.266ZM94.0368 22.965V23.756C94.0368 23.8773 94.0018 23.973 93.9318 24.043C93.8665 24.113 93.7522 24.1667 93.5888 24.204L93.0638 24.323C93.0918 24.4257 93.1128 24.5307 93.1268 24.638C93.1455 24.7453 93.1548 24.8573 93.1548 24.974C93.1548 25.338 93.0778 25.6647 92.9238 25.954C92.7745 26.2433 92.5668 26.4907 92.3008 26.696C92.0395 26.8967 91.7292 27.053 91.3698 27.165C91.0105 27.2723 90.6255 27.326 90.2148 27.326C90.1028 27.326 89.9932 27.3237 89.8858 27.319C89.7785 27.3097 89.6735 27.2957 89.5708 27.277C89.4122 27.375 89.3328 27.4847 89.3328 27.606C89.3328 27.7273 89.3982 27.816 89.5288 27.872C89.6595 27.9233 89.8322 27.9607 90.0468 27.984C90.2615 28.0027 90.5042 28.0167 90.7748 28.026C91.0502 28.0307 91.3302 28.047 91.6148 28.075C91.8995 28.0983 92.1772 28.1403 92.4478 28.201C92.7232 28.2617 92.9682 28.3597 93.1828 28.495C93.3975 28.6303 93.5702 28.8123 93.7008 29.041C93.8315 29.265 93.8968 29.552 93.8968 29.902C93.8968 30.2287 93.8175 30.5483 93.6588 30.861C93.5002 31.1737 93.2668 31.4513 92.9588 31.694C92.6508 31.9367 92.2728 32.1303 91.8248 32.275C91.3768 32.4243 90.8635 32.499 90.2848 32.499C89.7155 32.499 89.2232 32.4453 88.8078 32.338C88.3972 32.2307 88.0542 32.0883 87.7788 31.911C87.5082 31.7383 87.3075 31.5377 87.1768 31.309C87.0462 31.0803 86.9808 30.8423 86.9808 30.595C86.9808 30.273 87.0742 30.0047 87.2608 29.79C87.4475 29.5753 87.7088 29.4027 88.0448 29.272C87.8675 29.1647 87.7275 29.027 87.6248 28.859C87.5222 28.691 87.4708 28.474 87.4708 28.208C87.4708 28.1007 87.4895 27.9887 87.5268 27.872C87.5642 27.7507 87.6225 27.634 87.7018 27.522C87.7858 27.4053 87.8885 27.2957 88.0098 27.193C88.1312 27.0903 88.2758 26.9993 88.4438 26.92C88.0658 26.7193 87.7672 26.4557 87.5478 26.129C87.3285 25.7977 87.2188 25.4127 87.2188 24.974C87.2188 24.61 87.2958 24.2833 87.4498 23.994C87.6038 23.7 87.8138 23.4527 88.0798 23.252C88.3505 23.0467 88.6678 22.8903 89.0318 22.783C89.3958 22.671 89.7902 22.615 90.2148 22.615C90.8308 22.615 91.3768 22.7317 91.8528 22.965H94.0368ZM96.944 23.525C97.084 23.3943 97.2287 23.273 97.378 23.161C97.5274 23.049 97.686 22.9557 97.854 22.881C98.0267 22.8017 98.211 22.741 98.407 22.699C98.6077 22.6523 98.8247 22.629 99.058 22.629C99.4547 22.629 99.8047 22.699 100.108 22.839C100.416 22.9743 100.675 23.1657 100.885 23.413C101.095 23.6557 101.254 23.9473 101.361 24.288C101.468 24.624 101.522 24.9903 101.522 25.387V30H99.352V25.387C99.352 25.0323 99.2704 24.757 99.107 24.561C98.9437 24.3603 98.7034 24.26 98.386 24.26C98.148 24.26 97.924 24.3113 97.714 24.414C97.5087 24.512 97.308 24.6473 97.112 24.82V30H94.942V22.741H96.286C96.5567 22.741 96.734 22.8623 96.818 23.105L96.944 23.525Z" fill="#EC4327"/>
<rect x="2.5" y="3" width="118" height="43" stroke="#EC4327" stroke-width="5"/>
</svg>
